<svg xmlns="http://www.w3.org/2000/svg" width="480" height="96" viewBox="0 0 480 96"><g fill="#FFF"><path d="M51.7 39.73v-4.135c0-.622.03-1.1.085-1.442a2.81 2.81 0 0 1 .394-1.005c.206-.33.533-.553.988-.684.457-.125 1.066-.19 1.824-.19h4.13V24h-6.61c-3.825 0-6.573.907-8.24 2.72-1.668 1.818-2.505 4.493-2.505 8.028v4.978h-4.95V48h4.95v24H51.7V48h6.61l.874-8.27H51.7zM168 33.143c-1.89.81-3.78 1.316-5.664 1.523 2.13-1.282 3.573-3.09 4.325-5.422a19.517 19.517 0 0 1-6.248 2.377c-1.947-2.07-4.343-3.112-7.188-3.112-2.725 0-5.04.96-6.965 2.876-1.912 1.92-2.875 4.24-2.875 6.958 0 .734.08 1.484.242 2.255-4.017-.205-7.784-1.213-11.314-3.03-3.52-1.816-6.51-4.24-8.964-7.263a9.637 9.637 0 0 0-1.345 4.964c0 1.688.395 3.247 1.19 4.69.792 1.44 1.85 2.606 3.202 3.5a9.77 9.77 0 0 1-4.45-1.248v.122c0 2.37.747 4.457 2.233 6.258 1.5 1.793 3.375 2.927 5.657 3.395-.855.217-1.722.335-2.59.335-.567 0-1.194-.05-1.857-.156.63 1.976 1.786 3.59 3.473 4.856 1.69 1.275 3.592 1.924 5.725 1.97-3.575 2.797-7.645 4.2-12.212 4.2-.875 0-1.667-.035-2.375-.128 4.567 2.953 9.604 4.43 15.1 4.43 3.5 0 6.777-.553 9.846-1.66 3.064-1.105 5.684-2.588 7.852-4.447a29.653 29.653 0 0 0 5.623-6.405c1.574-2.423 2.747-4.945 3.518-7.568.772-2.637 1.16-5.264 1.16-7.902 0-.573-.013-.997-.033-1.286a20.58 20.58 0 0 0 4.935-5.08zM243.614 54.564a17.793 17.793 0 0 0-1.688-1.91 30.545 30.545 0 0 0-1.846-1.6 51.67 51.67 0 0 1-1.69-1.372 7.82 7.82 0 0 1-1.242-1.397c-.31-.474-.473-.966-.473-1.46 0-.698.227-1.35.66-1.958.443-.596.98-1.184 1.615-1.76a29.1 29.1 0 0 0 1.9-1.856c.636-.676 1.176-1.564 1.616-2.667.444-1.104.67-2.368.67-3.795 0-1.69-.375-3.31-1.125-4.875-.76-1.552-1.815-2.768-3.176-3.633h3.89l3.91-2.28h-12.608c-1.785 0-3.587.19-5.393.582-2.673.593-4.923 1.952-6.75 4.08s-2.74 4.53-2.74 7.223c0 2.853 1.026 5.22 3.073 7.1 2.042 1.88 4.5 2.82 7.366 2.82.58 0 1.257-.05 2.025-.144-.042.158-.11.367-.203.626-.096.258-.172.468-.234.616a5.135 5.135 0 0 0-.143.563c-.04.227-.064.448-.064.68 0 1.266.625 2.707 1.85 4.303a33.18 33.18 0 0 0-4.32.384 32.758 32.758 0 0 0-4.473 1.036 13.82 13.82 0 0 0-4.188 2.052c-1.225.896-2.146 1.964-2.77 3.188-.708 1.418-1.06 2.725-1.06 3.896 0 1.297.284 2.445.866 3.508a7.88 7.88 0 0 0 2.223 2.568c.898.66 1.946 1.223 3.126 1.658 1.178.46 2.35.785 3.517.976 1.167.19 2.315.284 3.446.284 5.155 0 9.19-1.26 12.115-3.785 2.695-2.344 4.037-5.037 4.037-8.122 0-1.11-.152-2.118-.476-3.082a8.57 8.57 0 0 0-1.242-2.444zm-11.116-10.48a5.65 5.65 0 0 1-2.805-.75 7.598 7.598 0 0 1-2.25-1.95 14.292 14.292 0 0 1-1.616-2.704 14.93 14.93 0 0 1-1.018-2.99 13.004 13.004 0 0 1-.332-2.857c0-1.85.483-3.438 1.465-4.76.983-1.332 2.366-1.988 4.16-1.988 1.27 0 2.417.394 3.447 1.175a8.156 8.156 0 0 1 2.418 3 19.116 19.116 0 0 1 1.36 3.768c.31 1.294.47 2.52.47 3.682 0 1.92-.42 3.468-1.25 4.625-.835 1.166-2.192 1.748-4.05 1.748zm7.973 21.648a5.653 5.653 0 0 1-2.155 2.138c-.897.515-1.87.888-2.89 1.128-1.032.24-2.122.344-3.25.344a16.08 16.08 0 0 1-3.662-.427 14.416 14.416 0 0 1-3.484-1.316 7.153 7.153 0 0 1-2.68-2.43c-.684-1.03-1.026-2.18-1.026-3.492 0-1.158.258-2.188.786-3.09.518-.895 1.177-1.63 1.992-2.156.803-.548 1.743-.982 2.82-1.344a18.763 18.763 0 0 1 3.118-.713 22.55 22.55 0 0 1 3.065-.195c.634 0 1.11.012 1.437.053.116.06.405.277.884.61.47.32.783.55.943.655.164.103.464.334.893.656.438.328.746.568.928.744.188.155.448.396.798.743.337.31.595.592.758.848.164.236.37.527.607.864.24.356.404.688.51 1.008.093.308.187.66.266 1.036.09.375.13.76.13 1.168.007 1.223-.255 2.273-.79 3.168z"/><path d="M256.615 31.383V24h-3.698v7.383h-7.382v3.698h7.382v7.386h3.698V35.08H264v-3.697zM416.73 57.53c-1.59 0-2.945.58-4.05 1.683-1.13 1.125-1.678 2.466-1.678 4.054 0 1.59.546 2.947 1.677 4.055 1.104 1.125 2.465 1.673 4.05 1.673 1.596 0 2.933-.548 4.054-1.673 1.107-1.107 1.662-2.467 1.662-4.055 0-1.59-.555-2.932-1.662-4.054-1.12-1.104-2.457-1.682-4.053-1.682zM429.908 50.09a26.073 26.073 0 0 0-7.737-5.417 26.395 26.395 0 0 0-9.112-2.397h-.146c-.507 0-.95.166-1.278.502a1.775 1.775 0 0 0-.632 1.397v4.04c0 .498.172.916.496 1.28.322.358.734.55 1.23.595 4.556.425 8.44 2.277 11.673 5.504 3.227 3.234 5.062 7.118 5.508 11.674.04.498.233.908.593 1.23.364.328.78.497 1.283.497h4.038c.566 0 1.047-.218 1.39-.628.395-.408.544-.87.525-1.427a26.953 26.953 0 0 0-2.406-9.114c-1.356-2.91-3.147-5.497-5.422-7.736z"/><path d="M449.416 52.045a42.11 42.11 0 0 0-8.764-12.7c-3.717-3.716-7.926-6.64-12.698-8.76A41.42 41.42 0 0 0 413 26.997h-.09c-.51 0-.955.184-1.316.54-.406.363-.594.82-.594 1.37v4.267c0 .496.175.932.51 1.296.354.367.772.566 1.272.588a33.7 33.7 0 0 1 12.196 3.048c3.838 1.763 7.178 4.064 10.026 6.903 2.828 2.83 5.118 6.175 6.896 10.015a33.205 33.205 0 0 1 3.008 12.198c.033.498.218.914.586 1.27.362.332.813.508 1.324.508h4.275c.545 0 1.005-.185 1.363-.588.408-.407.562-.865.54-1.41a41.176 41.176 0 0 0-3.58-14.957z"/><g><path d="M356.072 38.83c.517-1.562.786-3.18.786-4.848 0-2.23-.5-4.332-1.484-6.287-2.06 0-3.864.364-5.446 1.125-1.586.742-3.375 1.91-5.392 3.494-2.537-.622-5.23-.93-8.083-.93-3.114 0-6.078.343-8.91 1.01-2.06-1.616-3.87-2.8-5.444-3.563-1.586-.756-3.41-1.135-5.482-1.135a13.843 13.843 0 0 0-1.475 6.287c0 1.69.26 3.328.775 4.902-2.62 3.064-3.918 6.866-3.918 11.422 0 3.988.594 7.176 1.786 9.552a11.892 11.892 0 0 0 2.48 3.32 13.058 13.058 0 0 0 3.493 2.343c1.308.584 2.625 1.082 3.942 1.472 1.337.407 2.805.69 4.403.872 1.612.186 3.026.3 4.26.35 1.226.07 2.59.09 4.09.09 1.774 0 3.374-.044 4.833-.134a44.95 44.95 0 0 0 4.935-.627c1.862-.336 3.48-.795 4.91-1.366a15.7 15.7 0 0 0 4.053-2.48 11.573 11.573 0 0 0 3.05-3.84c1.17-2.39 1.764-5.57 1.764-9.555 0-4.57-1.308-8.396-3.928-11.47zm-3.464 20.985c-.61 1.26-1.384 2.25-2.343 2.963-.938.73-2.11 1.307-3.516 1.734-1.41.445-2.74.73-4.037.844a39.345 39.345 0 0 1-4.296.216h-4.848a39.42 39.42 0 0 1-4.296-.216c-1.29-.116-2.642-.4-4.042-.844-1.407-.427-2.58-1.003-3.52-1.734-.942-.715-1.715-1.704-2.33-2.963-.623-1.263-.93-2.73-.93-4.42 0-2.32.658-4.286 1.993-5.894 1.33-1.614 3.122-2.418 5.394-2.418.83 0 2.708.196 5.62.6 1.376.22 2.885.32 4.54.32 1.647 0 3.163-.1 4.526-.32 2.968-.403 4.843-.6 5.617-.6 2.276 0 4.07.804 5.41 2.42 1.325 1.604 1.98 3.574 1.98 5.894.003 1.69-.312 3.156-.925 4.42z"/><path d="M328.856 50.824c-.585-.658-1.286-.984-2.09-.984-.815 0-1.5.326-2.086.984a5.69 5.69 0 0 0-1.247 2.2 7.985 7.985 0 0 0-.365 2.372c0 .76.117 1.55.365 2.355a5.69 5.69 0 0 0 1.247 2.196c.585.652 1.27.98 2.085.98.805 0 1.502-.328 2.09-.98a5.602 5.602 0 0 0 1.24-2.195c.24-.805.357-1.596.357-2.354 0-.782-.116-1.57-.357-2.373a5.582 5.582 0 0 0-1.24-2.2zM347.31 50.824c-.576-.658-1.27-.984-2.07-.984-.808 0-1.51.326-2.105.984a5.725 5.725 0 0 0-1.23 2.2 8.318 8.318 0 0 0-.362 2.372c0 .76.125 1.55.363 2.355.235.806.65 1.542 1.23 2.196.59.652 1.296.98 2.103.98.8 0 1.496-.328 2.07-.98a5.605 5.605 0 0 0 1.257-2.195 8.318 8.318 0 0 0 0-4.728 5.622 5.622 0 0 0-1.255-2.198z"/></g></g></svg>